<?xml version="1.0" encoding="UTF-8" standalone="no"?>
<!DOCTYPE svg PUBLIC "-//W3C//DTD SVG 1.1//EN" "http://www.w3.org/Graphics/SVG/1.1/DTD/svg11.dtd">
<svg width="100%" height="100%" viewBox="0 0 276 39" version="1.1" xmlns="http://www.w3.org/2000/svg" xmlns:xlink="http://www.w3.org/1999/xlink" xml:space="preserve" xmlns:serif="http://www.serif.com/" style="fill-rule:evenodd;clip-rule:evenodd;stroke-linejoin:round;stroke-miterlimit:2;">
    <path d="M10.405,30.352C14.853,30.352 17.765,27.92 17.765,24.208C17.765,20.336 14.309,19.088 10.341,17.776C7.141,16.72 4.869,15.888 4.869,13.2C4.869,10.704 6.821,8.88 9.925,8.88C13.125,8.88 14.853,10.736 15.685,12.752L17.125,11.952C16.037,9.36 13.605,7.248 9.925,7.248C6.117,7.248 3.141,9.584 3.141,13.264C3.141,17.168 6.501,18.224 10.245,19.44C13.669,20.528 16.037,21.552 16.037,24.24C16.037,26.8 14.149,28.72 10.405,28.72C6.725,28.72 4.453,26.896 3.685,24.208L2.213,25.072C3.237,28.24 6.213,30.352 10.405,30.352ZM42.896,7.6L42.896,26.864L29.648,7.6L28.176,7.6L28.176,30L29.872,30L29.872,10.736L43.088,30L44.592,30L44.592,7.6L42.896,7.6ZM71.616,30L73.408,30L64.736,7.6L62.944,7.6L54.24,30L56.032,30L58.208,24.304L69.44,24.304L71.616,30ZM58.848,22.704L63.84,9.68L68.832,22.704L58.848,22.704ZM95.005,18.384C96.733,17.456 97.885,15.664 97.885,13.488C97.885,10.256 95.261,7.6 91.997,7.6L83.069,7.6L83.069,30L92.733,30C96.125,30 98.845,27.28 98.845,23.888C98.845,21.328 97.245,19.248 95.005,18.384ZM91.997,9.2C94.301,9.2 96.189,11.12 96.189,13.488C96.189,15.856 94.301,17.776 91.997,17.776L84.765,17.776L84.765,9.2L91.997,9.2ZM92.733,28.4L84.765,28.4L84.765,19.376L92.733,19.376C95.165,19.376 97.149,21.392 97.149,23.888C97.149,26.384 95.165,28.4 92.733,28.4ZM121.343,18.384C123.071,17.456 124.223,15.664 124.223,13.488C124.223,10.256 121.599,7.6 118.335,7.6L109.407,7.6L109.407,30L119.071,30C122.463,30 125.183,27.28 125.183,23.888C125.183,21.328 123.583,19.248 121.343,18.384ZM118.335,9.2C120.639,9.2 122.527,11.12 122.527,13.488C122.527,15.856 120.639,17.776 118.335,17.776L111.103,17.776L111.103,9.2L118.335,9.2ZM119.071,28.4L111.103,28.4L111.103,19.376L119.071,19.376C121.503,19.376 123.487,21.392 123.487,23.888C123.487,26.384 121.503,28.4 119.071,28.4ZM137.44,28.4L137.44,7.6L135.744,7.6L135.744,30L148,30L148,28.4L137.44,28.4ZM159.621,28.4L159.621,19.504L169.861,19.504L169.861,17.904L159.621,17.904L159.621,9.2L170.661,9.2L170.661,7.6L157.925,7.6L157.925,30L170.821,30L170.821,28.4L159.621,28.4Z" style="fill:white;fill-rule:nonzero;"/>
    <path d="M191.173,7.6L182.693,7.6L182.693,30L187.813,30L187.813,22.96L191.173,22.96C195.589,22.96 199.013,19.536 199.013,15.28C199.013,11.024 195.589,7.6 191.173,7.6ZM191.173,18.16L187.813,18.16L187.813,12.4L191.173,12.4C192.741,12.4 193.893,13.648 193.893,15.28C193.893,16.912 192.741,18.16 191.173,18.16ZM219.958,30L225.558,30L217.942,7.6L211.414,7.6L203.798,30L209.398,30L210.518,26.48L218.838,26.48L219.958,30ZM212.054,21.68L214.678,13.456L217.302,21.68L212.054,21.68ZM249.233,7.6L243.409,7.6L239.153,16.24L234.897,7.6L229.073,7.6L236.593,21.392L236.593,30L241.713,30L241.713,21.392L249.233,7.6Z" style="fill:white;fill-rule:nonzero;"/>
    <g transform="matrix(1.53227,0,0,1.53227,247.795,1.57685)">
        <path d="M13.732,4.707L12.851,10.097L17.333,10.097C17.877,10.097 18.192,10.712 17.874,11.153L11.601,19.857C11.189,20.427 10.288,20.054 10.402,19.359L11.282,13.97L6.8,13.97C6.256,13.97 5.941,13.354 6.259,12.913L12.533,4.21C12.944,3.639 13.845,4.013 13.732,4.707ZM11.959,7.286L8.102,12.636L12.067,12.636C12.478,12.636 12.791,13.005 12.725,13.411L12.174,16.781L16.031,11.43L12.067,11.43C11.656,11.43 11.342,11.062 11.409,10.656L11.959,7.286Z" style="fill:white;"/>
    </g>
</svg>
